<svg width="18" height="18" viewBox="0 0 18 18" fill="none" xmlns="http://www.w3.org/2000/svg">
<path d="M10.7097 7.55995C11.8797 7.55995 12.5997 5.84995 12.5997 4.76995C12.5997 3.86995 12.1497 2.78995 11.2497 2.78995C10.0797 2.78995 9.35973 4.49995 9.35973 5.57995C9.35973 6.47995 9.80973 7.55995 10.7097 7.55995ZM7.28973 7.55995C8.18973 7.55995 8.63973 6.47995 8.63973 5.57995C8.63973 4.40995 7.91973 2.69995 6.74973 2.69995C5.84973 2.69995 5.39973 3.77995 5.39973 4.67995C5.30973 5.84995 6.02973 7.55995 7.28973 7.55995ZM13.9497 6.65995C12.7797 6.65995 11.9697 8.27995 11.9697 9.44995C11.9697 10.26 12.3297 11.07 13.1397 11.07C14.3097 11.07 15.1197 9.44995 15.1197 8.27995C15.1197 7.46995 14.6697 6.65995 13.9497 6.65995ZM6.11973 9.44995C6.11973 8.27995 5.21973 6.65995 4.13973 6.65995C3.32973 6.65995 2.96973 7.46995 2.96973 8.27995C2.96973 9.44995 3.86973 11.07 4.94973 11.07C5.75973 11.07 6.11973 10.26 6.11973 9.44995ZM8.99973 9.26995C7.19973 9.26995 4.76973 12.15 4.76973 14.13C4.76973 15.03 5.39973 15.3 6.11973 15.3C7.19973 15.3 8.00973 14.58 8.99973 14.58C9.89973 14.58 10.7097 15.3 11.6997 15.3C12.4197 15.3 13.2297 15.12 13.2297 14.13C13.2297 12.15 10.7997 9.26995 8.99973 9.26995Z" fill="#141414"/>
</svg>
